<svg xmlns="http://www.w3.org/2000/svg" xmlns:xlink="http://www.w3.org/1999/xlink" width="1085" zoomAndPan="magnify"
    viewBox="0 0 813.75 311.999988" height="416" preserveAspectRatio="xMidYMid meet" version="1.2">
    <defs>
        <filter x="0%" y="0%" width="100%" filterUnits="objectBoundingBox" id="1bc5512a5f" height="100%">
            <feColorMatrix values="0 0 0 0 1 0 0 0 0 1 0 0 0 0 1 0 0 0 1 0" type="matrix" in="SourceGraphic" />
        </filter>
        <clipPath id="b86ff89686">
            <rect x="0" width="120" y="0" height="183" />
        </clipPath>
    </defs>
    <g id="1ce0685988">
        <g style="fill:#9f7cef;fill-opacity:1;">
            <g transform="translate(206.006597, 201.832013)">
                <path style="stroke:none"
                    d="M 50.328125 1.171875 C 44.109375 1.171875 38.296875 0.00390625 32.890625 -2.328125 C 27.492188 -4.660156 22.726562 -7.894531 18.59375 -12.03125 C 14.46875 -16.164062 11.234375 -20.929688 8.890625 -26.328125 C 6.554688 -31.734375 5.390625 -37.546875 5.390625 -43.765625 C 5.390625 -49.992188 6.554688 -55.804688 8.890625 -61.203125 C 11.234375 -66.597656 14.46875 -71.363281 18.59375 -75.5 C 22.726562 -79.632812 27.492188 -82.867188 32.890625 -85.203125 C 38.296875 -87.535156 44.109375 -88.703125 50.328125 -88.703125 C 56.554688 -88.703125 62.394531 -87.535156 67.84375 -85.203125 C 73.289062 -82.867188 78.054688 -79.632812 82.140625 -75.5 C 86.222656 -71.363281 89.429688 -66.597656 91.765625 -61.203125 C 94.097656 -55.804688 95.265625 -49.992188 95.265625 -43.765625 C 95.265625 -37.546875 94.097656 -31.734375 91.765625 -26.328125 C 89.429688 -20.929688 86.222656 -16.164062 82.140625 -12.03125 C 78.054688 -7.894531 73.289062 -4.660156 67.84375 -2.328125 C 62.394531 0.00390625 56.554688 1.171875 50.328125 1.171875 Z M 50.328125 -17.65625 C 55.296875 -17.65625 59.75 -18.796875 63.6875 -21.078125 C 67.625 -23.367188 70.734375 -26.484375 73.015625 -30.421875 C 75.304688 -34.359375 76.453125 -38.804688 76.453125 -43.765625 C 76.453125 -48.722656 75.304688 -53.171875 73.015625 -57.109375 C 70.734375 -61.054688 67.625 -64.171875 63.6875 -66.453125 C 59.75 -68.742188 55.296875 -69.890625 50.328125 -69.890625 C 45.472656 -69.890625 41.070312 -68.742188 37.125 -66.453125 C 33.1875 -64.171875 30.070312 -61.054688 27.78125 -57.109375 C 25.5 -53.171875 24.359375 -48.722656 24.359375 -43.765625 C 24.359375 -38.804688 25.5 -34.359375 27.78125 -30.421875 C 30.070312 -26.484375 33.1875 -23.367188 37.125 -21.078125 C 41.070312 -18.796875 45.472656 -17.65625 50.328125 -17.65625 Z M 50.328125 -17.65625 " />
            </g>
        </g>
        <g style="fill:#9f7cef;fill-opacity:1;">
            <g transform="translate(300.870331, 201.832013)">
                <path style="stroke:none"
                    d="M 50.328125 -48 L 95.421875 -48 L 95.421875 -43.765625 C 95.421875 -37.546875 94.253906 -31.734375 91.921875 -26.328125 C 89.585938 -20.929688 86.351562 -16.164062 82.21875 -12.03125 C 78.082031 -7.894531 73.3125 -4.660156 67.90625 -2.328125 C 62.507812 0.00390625 56.703125 1.171875 50.484375 1.171875 C 44.253906 1.171875 38.414062 0.00390625 32.96875 -2.328125 C 27.519531 -4.660156 22.753906 -7.894531 18.671875 -12.03125 C 14.585938 -16.164062 11.378906 -20.929688 9.046875 -26.328125 C 6.710938 -31.734375 5.546875 -37.546875 5.546875 -43.765625 C 5.546875 -49.992188 6.710938 -55.804688 9.046875 -61.203125 C 11.378906 -66.597656 14.585938 -71.363281 18.671875 -75.5 C 22.753906 -79.632812 27.519531 -82.867188 32.96875 -85.203125 C 38.414062 -87.535156 44.253906 -88.703125 50.484375 -88.703125 C 59.140625 -88.703125 66.992188 -86.488281 74.046875 -82.0625 C 81.097656 -77.632812 86.519531 -71.828125 90.3125 -64.640625 L 73.671875 -56.03125 C 71.535156 -60.207031 68.425781 -63.5625 64.34375 -66.09375 C 60.257812 -68.625 55.640625 -69.890625 50.484375 -69.890625 C 45.617188 -69.890625 41.191406 -68.742188 37.203125 -66.453125 C 33.210938 -64.171875 30.070312 -61.054688 27.78125 -57.109375 C 25.5 -53.171875 24.359375 -48.722656 24.359375 -43.765625 C 24.359375 -38.804688 25.5 -34.359375 27.78125 -30.421875 C 30.070312 -26.484375 33.210938 -23.367188 37.203125 -21.078125 C 41.191406 -18.796875 45.617188 -17.65625 50.484375 -17.65625 C 55.929688 -17.65625 60.769531 -19.0625 65 -21.875 C 69.226562 -24.695312 72.363281 -28.394531 74.40625 -32.96875 L 50.328125 -32.96875 Z M 50.328125 -48 " />
            </g>
        </g>
        <g style="fill:#9f7cef;fill-opacity:1;">
            <g transform="translate(395.87996, 201.832013)">
                <path style="stroke:none"
                    d="M 71.484375 -87.53125 L 90.609375 -87.53125 L 90.609375 0 L 70.765625 0 L 27.859375 -58.0625 L 27.859375 0 L 8.609375 0 L 8.609375 -87.53125 L 28.453125 -87.53125 L 71.484375 -29.625 Z M 71.484375 -87.53125 " />
            </g>
        </g>
        <g style="fill:#9f7cef;fill-opacity:1;">
            <g transform="translate(489.284696, 201.832013)">
                <path style="stroke:none"
                    d="M 9.34375 0 L 9.34375 -87.53125 L 28.59375 -87.53125 L 28.59375 0 Z M 9.34375 0 " />
            </g>
        </g>
        <g style="fill:white;fill-opacity:1;">
            <g transform="translate(528.466264, 201.832013)">
                <path style="stroke:none"
                    d="M 63.46875 -87.53125 L 73.671875 -87.53125 L 42.015625 0 L 31.65625 0 L 0 -87.53125 L 10.359375 -87.53125 L 36.90625 -11.96875 Z M 63.46875 -87.53125 " />
            </g>
        </g>
        <g style="fill:white;fill-opacity:1;">
            <g transform="translate(598.877277, 201.832013)">
                <path style="stroke:none"
                    d="M 11.375 0 L 11.375 -87.53125 L 20.71875 -87.53125 L 20.71875 0 Z M 11.375 0 " />
            </g>
        </g>
        <g style="fill:white;fill-opacity:1;">
            <g transform="translate(627.561083, 201.832013)">
                <path style="stroke:none"
                    d="M 53.84375 -44.359375 C 58.40625 -42.796875 62.144531 -40.191406 65.0625 -36.546875 C 67.988281 -32.898438 69.453125 -28.398438 69.453125 -23.046875 C 69.453125 -18.578125 68.378906 -14.585938 66.234375 -11.078125 C 64.097656 -7.578125 61.226562 -4.851562 57.625 -2.90625 C 54.03125 -0.96875 49.992188 0 45.515625 0 L 10.65625 0 L 10.65625 -87.53125 L 42.453125 -87.53125 C 46.929688 -87.53125 50.992188 -86.535156 54.640625 -84.546875 C 58.285156 -82.554688 61.203125 -79.804688 63.390625 -76.296875 C 65.578125 -72.796875 66.671875 -68.757812 66.671875 -64.1875 C 66.671875 -59.519531 65.503906 -55.484375 63.171875 -52.078125 C 60.835938 -48.679688 57.726562 -46.109375 53.84375 -44.359375 Z M 57.34375 -63.46875 C 57.34375 -67.75 55.785156 -71.273438 52.671875 -74.046875 C 49.554688 -76.816406 45.8125 -78.203125 41.4375 -78.203125 L 19.84375 -78.203125 L 19.84375 -48.296875 L 41.4375 -48.296875 C 45.8125 -48.296875 49.554688 -49.753906 52.671875 -52.671875 C 55.785156 -55.585938 57.34375 -59.1875 57.34375 -63.46875 Z M 44.359375 -9.34375 C 48.628906 -9.34375 52.320312 -10.726562 55.4375 -13.5 C 58.550781 -16.269531 60.109375 -19.796875 60.109375 -24.078125 C 60.109375 -28.359375 58.550781 -31.957031 55.4375 -34.875 C 52.320312 -37.789062 48.628906 -39.25 44.359375 -39.25 L 19.84375 -39.25 L 19.84375 -9.34375 Z M 44.359375 -9.34375 " />
            </g>
        </g>
        <g style="fill:white;fill-opacity:1;">
            <g transform="translate(700.598278, 201.832013)">
                <path style="stroke:none"
                    d="M 59.234375 -78.5 L 20.71875 -78.5 L 20.71875 -48.296875 L 54.28125 -48.296875 L 54.28125 -39.25 L 20.71875 -39.25 L 20.71875 -9.046875 L 59.234375 -9.046875 L 59.234375 0 L 11.375 0 L 11.375 -87.53125 L 59.234375 -87.53125 Z M 59.234375 -78.5 " />
            </g>
        </g>
        <g style="fill:#9f7cef;fill-opacity:1;">
            <g transform="translate(79.017797, 211.945354)">
                <path style="stroke:none"
                    d="M 64.765625 1.515625 C 56.679688 1.515625 49.101562 0 42.03125 -3.03125 C 34.96875 -6.0625 28.785156 -10.257812 23.484375 -15.625 C 18.179688 -20.988281 14.015625 -27.171875 10.984375 -34.171875 C 7.953125 -41.179688 6.4375 -48.726562 6.4375 -56.8125 C 6.4375 -64.894531 7.953125 -72.4375 10.984375 -79.4375 C 14.015625 -86.445312 18.179688 -92.632812 23.484375 -98 C 28.785156 -103.363281 34.96875 -107.5625 42.03125 -110.59375 C 49.101562 -113.625 56.679688 -115.140625 64.765625 -115.140625 C 76.003906 -115.140625 86.257812 -112.203125 95.53125 -106.328125 C 104.8125 -100.460938 111.851562 -92.796875 116.65625 -83.328125 L 91.65625 -70.640625 C 89.257812 -75.554688 85.691406 -79.46875 80.953125 -82.375 C 76.222656 -85.28125 70.828125 -86.734375 64.765625 -86.734375 C 59.085938 -86.734375 53.972656 -85.4375 49.421875 -82.84375 C 44.878906 -80.257812 41.28125 -76.726562 38.625 -72.25 C 35.976562 -67.769531 34.65625 -62.625 34.65625 -56.8125 C 34.65625 -51.132812 35.976562 -46.019531 38.625 -41.46875 C 41.28125 -36.925781 44.878906 -33.359375 49.421875 -30.765625 C 53.972656 -28.179688 59.085938 -26.890625 64.765625 -26.890625 C 70.828125 -26.890625 76.222656 -28.34375 80.953125 -31.25 C 85.691406 -34.15625 89.257812 -38.066406 91.65625 -42.984375 L 116.65625 -30.296875 C 111.851562 -20.828125 104.8125 -13.15625 95.53125 -7.28125 C 86.257812 -1.414062 76.003906 1.515625 64.765625 1.515625 Z M 64.765625 1.515625 " />
            </g>
        </g>
        <g mask="url(#5787979d47)" transform="matrix(1,0,0,1,90,53)">
            <g clip-path="url(#b86ff89686)">
                <g style="fill:#9f7cef;fill-opacity:1;">
                    <g transform="translate(118.485891, 46.309726)">
                        <path style="stroke:none"
                            d="M -64.765625 -1.515625 C -56.679688 -1.515625 -49.101562 0 -42.03125 3.03125 C -34.96875 6.0625 -28.785156 10.257812 -23.484375 15.625 C -18.179688 20.988281 -14.015625 27.171875 -10.984375 34.171875 C -7.953125 41.179688 -6.4375 48.726562 -6.4375 56.8125 C -6.4375 64.894531 -7.953125 72.4375 -10.984375 79.4375 C -14.015625 86.445312 -18.179688 92.632812 -23.484375 98 C -28.785156 103.363281 -34.96875 107.5625 -42.03125 110.59375 C -49.101562 113.625 -56.679688 115.140625 -64.765625 115.140625 C -76.003906 115.140625 -86.257812 112.203125 -95.53125 106.328125 C -104.8125 100.460938 -111.851562 92.796875 -116.65625 83.328125 L -91.65625 70.640625 C -89.257812 75.554688 -85.691406 79.46875 -80.953125 82.375 C -76.222656 85.28125 -70.828125 86.734375 -64.765625 86.734375 C -59.085938 86.734375 -53.972656 85.4375 -49.421875 82.84375 C -44.878906 80.257812 -41.28125 76.726562 -38.625 72.25 C -35.976562 67.769531 -34.65625 62.625 -34.65625 56.8125 C -34.65625 51.132812 -35.976562 46.019531 -38.625 41.46875 C -41.28125 36.925781 -44.878906 33.359375 -49.421875 30.765625 C -53.972656 28.179688 -59.085938 26.890625 -64.765625 26.890625 C -70.828125 26.890625 -76.222656 28.34375 -80.953125 31.25 C -85.691406 34.15625 -89.257812 38.066406 -91.65625 42.984375 L -116.65625 30.296875 C -111.851562 20.828125 -104.8125 13.15625 -95.53125 7.28125 C -86.257812 1.414062 -76.003906 -1.515625 -64.765625 -1.515625 Z M -64.765625 -1.515625 " />
                    </g>
                </g>
            </g>
            <mask id="5787979d47">
                <g filter="url(#1bc5512a5f)">
                    <rect x="0" width="813.75" y="0" height="311.999988"
                        style="fill:#000000;fill-opacity:0.31;stroke:none;" />
                </g>
            </mask>
        </g>
    </g>
</svg>